Coordinates
version=1
nRows=17
nColumns=24
inDegrees=yes

Units are S.I. units (second, meters, Newtons, ...)
Angles are in degrees.

endheader
time	pelvis_tilt	pelvis_list	pelvis_rotation	pelvis_tx	pelvis_ty	pelvis_tz	hip_flexion_r	hip_adduction_r	hip_rotation_r	knee_angle_r	ankle_angle_r	subtalar_angle_r	mtp_angle_r	hip_flexion_l	hip_adduction_l	hip_rotation_l	knee_angle_l	ankle_angle_l	subtalar_angle_l	mtp_angle_l	lumbar_extension	lumbar_bending	lumbar_rotation
      0.52100000	     -2.04731182	      0.36820787	      9.49564278	     -0.79725806	      0.88620640	      0.27737550	     27.67953671	     -1.85539590	    -11.27143385	     -3.53495702	      7.28532473	      2.53276521	      5.84673210	    -18.29943455	     -0.41572386	      5.96364170	     -7.63800754	     14.51171252	      1.14118945	      9.65503885	     -5.32565264	     -1.51711252	     -9.77508004
      0.52516667	     -2.08081519	      0.29063802	      9.54561869	     -0.79117772	      0.88509845	      0.27789026	     27.84888834	     -1.72242349	    -10.98169823	     -4.16734742	      7.16101682	      2.52373563	      5.81351274	    -18.28847061	     -0.59795345	      5.84936700	     -8.40107341	     14.60501477	      1.41118771	      9.75381919	     -5.27251953	     -1.40864063	     -9.83582723
      0.52933333	     -2.08485556	      0.18930977	      9.58233640	     -0.78503379	      0.88405391	      0.27843893	     27.98032385	     -1.55002485	    -10.70025998	     -4.84625995	      6.98385107	      2.44762208	      5.80921173	    -18.28115066	     -0.80898637	      5.68766343	     -9.22133221	     14.69536426	      1.71548023	      9.91160143	     -5.25771089	     -1.26897743	     -9.86791563
      0.53350000	     -2.07509451	      0.08145444	      9.59742365	     -0.77882390	      0.88304747	      0.27902888	     28.09770597	     -1.35559359	    -10.42119056	     -5.58146575	      6.76482128	      2.32167893	      5.82757849	    -18.29201328	     -1.02180984	      5.53384393	    -10.04633234	     14.74738733	      1.93285439	     10.08062019	     -5.24430254	     -1.11068976	     -9.88178418
      0.53766667	     -2.06089966	     -0.03497393	      9.61619787	     -0.77257524	      0.88206753	      0.27960656	     28.21117957	     -1.15337484	    -10.18030124	     -6.36550362	      6.46178488	      2.10652600	      5.86813779	    -18.27799977	     -1.24900148	      5.33042365	    -10.93721335	     14.76092100	      2.22943053	     10.30859225	     -5.21448920	     -0.93484868	     -9.88012865
      0.54183333	     -2.03324201	     -0.16146290	      9.62228366	     -0.76625661	      0.88114677	      0.28022139	     28.30689120	     -0.92845561	     -9.95652748	     -7.18372475	      6.10204763	      1.82919469	      5.93197064	    -18.26657005	     -1.48668578	      5.12063403	    -11.84517834	     14.71933821	      2.51571820	     10.60132557	     -5.20619229	     -0.75784696	     -9.85435829
      0.54600000	     -1.94952197	     -0.31949745	      9.65094905	     -0.75985800	      0.88035102	      0.28079051	     28.31966256	     -0.67396520	     -9.84571034	     -7.98752675	      5.65919683	      1.53750944	      7.01638451	    -18.28755755	     -1.78014354	      4.87180184	    -12.79517345	     14.55883896	      2.78120034	     14.87018785	     -5.23530407	     -0.51452550	     -9.81978582
      0.55016667	     -1.93572201	     -0.42649942	      9.60417613	     -0.75347268	      0.87945404	      0.28146672	     28.46154900	     -0.45046426	     -9.61786067	     -8.92808826	      5.24738911	      1.18795938	      7.02075790	    -18.26468291	     -1.96707589	      4.71715842	    -13.71893180	     14.37540168	      2.84741161	     14.93315002	     -5.20587343	     -0.36169583	     -9.76935843
      0.55433333	     -1.91392247	     -0.56211902	      9.58651182	     -0.74702800	      0.87863202	      0.28210680	     28.56359390	     -0.20614463	     -9.45647388	     -9.82289400	      4.73041867	      0.77807373	      7.03945126	    -18.19761082	     -2.19916035	      4.52970205	    -14.73346531	     14.17082215	      3.00218711	     15.04807442	     -5.15280364	     -0.16267209	     -9.68748384
      0.55850000	     -1.83181067	     -0.72072200	      9.55131833	     -0.74052219	      0.87791520	      0.28279836	     28.59866961	      0.08501622	     -9.29817115	    -10.72717164	      4.22927910	      0.25978904	      7.11629822	    -18.17339358	     -2.47347321	      4.23923115	    -15.79325187	     13.98825391	      3.29550730	     15.39400829	     -5.17999015	      0.06719983	     -9.58508288
      0.56266667	     -1.82581878	     -0.85558510	      9.51155331	     -0.73401569	      0.87715811	      0.28347228	     28.72987764	      0.33204127	     -9.17277874	    -11.67961304	      3.69282036	     -0.17370301	      7.17648713	    -18.05345489	     -2.69001110	      4.07532328	    -16.87680636	     13.64761689	      3.33929121	     15.68048115	     -5.11429288	      0.25964392	     -9.48658887
      0.56683333	     -1.71557826	     -1.06003034	      9.45165854	     -0.72737687	      0.87659401	      0.28421786	     28.69920582	      0.69042173	     -9.03560406	    -12.51967914	      3.07963216	     -0.71776619	      7.44427947	    -18.01535866	     -3.02481947	      3.67816359	    -18.00537303	     13.26130261	      3.67309404	     16.89661408	     -5.13820122	      0.56221847	     -9.32222584
      0.57100000	     -1.76633683	     -1.14407637	      9.39927077	     -0.72089046	      0.87585601	      0.28488748	     28.93216681	      0.86652447	     -8.94954795	    -13.59396362	      2.62821951	     -1.11039608	      7.50667429	    -17.79119787	     -3.15272912	      3.63975159	    -19.17464838	     12.83615875	      3.49419194	     17.24233217	     -5.00445775	      0.67559374	     -9.22671173
      0.57516667	     -1.76703210	     -1.28506014	      9.33461532	     -0.71430850	      0.87524859	      0.28561467	     29.07040965	      1.12541731	     -8.84979342	    -14.57665120	      2.12949206	     -1.56370838	      7.57208323	    -17.57950166	     -3.37057649	      3.44026669	    -20.40547518	     12.33127361	      3.52392400	     17.64889197	     -4.90825731	      0.87482964	     -9.06489954
      0.57933333	     -1.72174824	     -1.45734473	      9.27939739	     -0.70766071	      0.87478328	      0.28634194	     29.14035501	      1.41575171	     -8.81344739	    -15.52865907	      1.66642777	     -1.94733974	      8.36841277	    -17.38880167	     -3.64531979	      3.19215138	    -21.65299695	     11.67075019	      3.54096809	     22.72159522	     -4.85849307	      1.12962747	     -8.98455786
      0.58350000	     -1.73240620	     -1.58015487	      9.19324797	     -0.70106726	      0.87428424	      0.28709981	     29.30345607	      1.65448720	     -8.72570266	    -16.56986951	      1.33162763	     -2.29402097	      8.35697541	    -17.11427384	     -3.83143125	      3.01651865	    -22.96172773	     11.02384947	      3.48776091	     22.77352075	     -4.76007132	      1.30301302	     -8.77575671
      0.58766667	     -1.73899232	     -1.71870506	      9.11761202	     -0.69447032	      0.87385693	      0.28786916	     29.45077506	      1.90517664	     -8.66017005	    -17.59354535	      1.04757820	     -2.61917526	      8.34518765	    -16.78621264	     -4.04768175	      2.81469817	    -24.35683517	     10.34770976	      3.48516620	     22.87120350	     -4.65975777	      1.49461471	     -8.59929728
